[img]http://img31.imageshack.us/img31/1636/thegirla.jpg[/img]
[code]
The Girl With The Dragon Tattoo NEWSOURCE CAM XviD AC3-26K

Imdb: 
http://www.imdb.com/title/tt1568346/

Plot:
Journalist Mikael Blomkvist is aided in his search for a woman who has been missing for forty years by Lisbeth Salander, a young computer hacker.

Sources:
THNXS INFERNO!!

Notes:
VIDEO IS GOOD :) BUT HAS A SLIGHT FLICKER TO IT.. ALSO HAS CHAIRS AT THE BOTTOM WHICH IF CROPPED 40% OF SCREEN WOULD HAVE TO BE CUT!! THAT IS LOOSING TO MUCH VIDEO..THNXS TO INFERNO FOR THE NEWSOURCE U ROCK :p
ADDED BIT OF SHARPNESS, AND COLOR FILTERS TO THE VIDEO :) ENJOY.

Greetz:
Xtreme Encode|FYA|ILLUMANTI|CM8|RX|VISION|HDSCENE|NIGHTMAREZ|xTriLL|DTRG|CRYS|REMIXHD|BIDA|RX|REFILL|INSPiRAL|SIC
To all the people who have helped me :P you know who you are

Anything to offer email us @: 26k@hushmail.me

Video
ID                                       : 0
Format                                   : MPEG-4 Visual
Format profile                           : Advanced Simple@L5
Format settings, BVOP                    : 2
Format settings, QPel                    : No
Format settings, GMC                     : No warppoints
Format settings, Matrix                  : Default (H.263)
Codec ID                                 : XVID
Codec ID/Hint                            : XviD
Duration                                 : 2h 32mn
Bit rate                                 : 1 700 Kbps
Width                                    : 672 pixels
Height                                   : 352 pixels
Display aspect ratio                     : 1.909
Frame rate                               : 29.970 fps
Color space                              : YUV
Chroma subsampling                       : 4:2:0
Bit depth                                : 8 bits
Scan type                                : Progressive
Compression mode                         : Lossy
Bits/(Pixel*Frame)                       : 0.240
Stream size                              : 1.81 GiB (89%)
Writing library                          : XviD 63

Audio
ID                                       : 1
Format                                   : AC-3
Format/Info                              : Audio Coding 3
Mode extension                           : CM (complete main)
Codec ID                                 : 2000
Duration                                 : 2h 32mn
Bit rate mode                            : Constant
Bit rate                                 : 192 Kbps
Channel(s)                               : 2 channels
Channel positions                        : Front: L R
Sampling rate                            : 48.0 KHz
Bit depth                                : 16 bits
Compression mode                         : Lossy
Stream size                              : 210 MiB (10%)
Alignment                                : Aligned on interleaves
Interleave, duration                     : 32 ms (0.96 video frame)

[/code]
Screens:
[img]http://img196.imageshack.us/img196/5296/vlcsnap2012011623h12m34.png[/img]
[img]http://img832.imageshack.us/img832/6295/vlcsnap2012011623h12m37.png[/img]
[img]http://img823.imageshack.us/img823/1545/vlcsnap2012011623h12m41.png[/img]
[img]http://img221.imageshack.us/img221/9707/vlcsnap2012011623h12m50gjenuwo.png[/img]
[img]http://img20.imageshack.us/img20/964/vlcsnap2012011623h12m57.png[/img]
[img]http://img824.imageshack.us/img824/8302/vlcsnap2012011623h13m21.png[/img]

[img]http://img851.imageshack.us/img851/5503/26ks.jpg[/img]
Thank you smallz for banner!